<?xml version="1.0"?>
<svg xmlns="http://www.w3.org/2000/svg" xmlns:xlink="http://www.w3.org/1999/xlink" width="512" height="512" viewBox="0 0 128 128"><defs><linearGradient id="a" x1="114.838" y1="111.054" x2="13.162" y2="9.379" gradientUnits="userSpaceOnUse"><stop offset="0" stop-color="#7075e0"/><stop offset="1" stop-color="#61c7d2"/></linearGradient></defs><path d="M121.25,18.583H102.083V1.75A1.749,1.749,0,0,0,100.333,0H27.667a1.749,1.749,0,0,0-1.75,1.75V18.583H6.75A6.758,6.758,0,0,0,0,25.333V90.25A6.758,6.758,0,0,0,6.75,97H48.083v14.083H37.833a1.75,1.75,0,0,0,0,3.5H90.167a5.256,5.256,0,0,1,5.25,5.25V124.5H32.583v-1.875a1.75,1.75,0,0,0-3.5,0v3.625a1.75,1.75,0,0,0,1.75,1.75H97.167a1.749,1.749,0,0,0,1.75-1.75v-6.417a8.76,8.76,0,0,0-8.75-8.75H79.917V97H121.25A6.758,6.758,0,0,0,128,90.25v-15a1.75,1.75,0,0,0-3.5,0v15a3.254,3.254,0,0,1-3.25,3.25H6.75A3.254,3.254,0,0,1,3.5,90.25V25.333a3.254,3.254,0,0,1,3.25-3.25H25.917v6.5H11.75A1.75,1.75,0,0,0,10,30.334V85.25A1.75,1.75,0,0,0,11.75,87h104.5A1.749,1.749,0,0,0,118,85.25V30.334a1.749,1.749,0,0,0-1.75-1.75H102.083v-6.5H121.25a3.254,3.254,0,0,1,3.25,3.25V47.458a1.75,1.75,0,0,0,3.5,0V25.333A6.758,6.758,0,0,0,121.25,18.583ZM76.417,97v14.083H51.583V97ZM13.5,32.084H25.917V83.5H13.5Zm15.917-1.75V3.5H98.583v80H29.417Zm85.083,1.75V83.5H102.083V32.084ZM128,57.792v7.125a1.75,1.75,0,0,1-3.5,0V57.792a1.75,1.75,0,0,1,3.5,0ZM52.368,21.384c-.011-.049-.023-.1-.038-.144a1.791,1.791,0,0,0-.1-.25c-.022-.043-.041-.086-.065-.128-.012-.018-.018-.039-.03-.057L45.634,10.8a1.75,1.75,0,0,0-2.935,0L36.2,20.805c-.012.018-.018.039-.03.057-.024.042-.043.085-.065.128a1.791,1.791,0,0,0-.1.25c-.015.048-.027.1-.038.144a1.771,1.771,0,0,0-.036.281c0,.031-.012.061-.012.093V71.25A5.756,5.756,0,0,0,41.667,77h5a5.757,5.757,0,0,0,5.75-5.75V21.758c0-.032-.011-.062-.013-.093A1.771,1.771,0,0,0,52.368,21.384Zm-8.2,5.449a1.746,1.746,0,0,0,.8-.192l3.954-2.022V55.874h-9.5V24.619l3.953,2.022A1.747,1.747,0,0,0,44.167,26.833Zm-4.75,32.541h9.5V63h-9.5Zm4.75-44.411,3.975,6.121-3.975,2.033-3.976-2.033Zm4.75,56.287a2.253,2.253,0,0,1-2.25,2.25h-5a2.253,2.253,0,0,1-2.25-2.25V66.5h9.5ZM90.333,10H60.675a1.749,1.749,0,0,0-1.75,1.75v20.5A1.749,1.749,0,0,0,60.675,34H90.333a1.749,1.749,0,0,0,1.75-1.75V11.75A1.749,1.749,0,0,0,90.333,10Zm-1.75,20.5H62.425v-17H88.583Zm3.5,11.758a1.749,1.749,0,0,1-1.75,1.75H60.675a1.75,1.75,0,0,1,0-3.5H90.333A1.749,1.749,0,0,1,92.083,42.258Zm-26.575,10a1.75,1.75,0,1,1,0-3.5H85.5a1.75,1.75,0,0,1,0,3.5Zm26.575,6.5a1.749,1.749,0,0,1-1.75,1.75H60.675a1.75,1.75,0,0,1,0-3.5H90.333A1.749,1.749,0,0,1,92.083,58.754Zm-26.575,10a1.75,1.75,0,1,1,0-3.5H85.5a1.75,1.75,0,0,1,0,3.5Zm26.575,6.5A1.749,1.749,0,0,1,90.333,77H60.675a1.75,1.75,0,0,1,0-3.5H90.333A1.749,1.749,0,0,1,92.083,75.25Z" fill="url(#a)"/></svg>
